<svg
        id="map-municipality"  version="1.1" viewBox="0 0 127.2898 118.3521" xmlns="http://www.w3.org/2000/svg">
        {/*<!-- Santa Lucia -->*/}
        <path  onClick={handleClicked} id="Santa-Lucia" className="c" d="M75.29,40.8835l.8135.1608.4542.2081.5013.4067.53.9271.6621.4824.71.2365,1.9771.3406,1.0311.3689.3216.3973.1325,1.2771.3973.9082-.4447.52-.3689.6434-.4918,1.5041-.6913,1.3059-.4824,1.5135-.2838,1.3906-.1041,1.1637-.104.1512-.1135,1.6745-.1893.7946-.5391-.2082-.7-.0851-2.0339.3784-1.3528.4256-.3311.1986-1.6555.265-3.3014.7473-1.4662.01-.7663-.1041-1.4852.123-1.9393-.1608-.823-.1514-.312-.1892-.246-.3216.5581-1.22.0661-2.0055,1.1446-1.2592,1.0785-.87.2742-.3595,1.315-.5676L67.94,51.11l.0757-.2459-.2081-1.5987-.3312-.7285-.1324-.2742-.2743-.4637-.17-.4162-.1419-.4256-.1418-.5865-.3595-1.0218.0095-.4351.0283-.4635.0757-.1325.719-.3689,1.9771-.3027.6716-.1419.71-.17,1.1067-.4162,1.2015-1.0311.9081-.7473.473-.1514,1.1541-.104"/>
        {/*<!-- Solola,solola -->*/}
        <path onClick={handleClicked} id="solola" className="c" d="M97.19,22.7962l2.28.3974.3972.4256.0379.2555.7473,1.23.0284.8419-.2082,1.9961.0663.17.2932.1135,1.06.8135.6149.2933.2933.35.3311.1891.5581-.17,1.1635-.5865.8988-.0757.6527.823.6433,1.1731.6337.9176.7853.7472.7189.6623,3.4244,2.6582.6055,1.0973.2553,1.2582-.1513.3973-.5014.5108-.454.1893-2.2231.4067-.7851.4068-.2176.2176-.9744.9933L107.7,42.6715l-.4067.5487-.6623.7284-.246.18-.927.2838-.71-.0379-.5014.0947-1.4852,1.3149-2.1285,1.5419-.1419.87.0663,1.419-.0947.5108.17.3973.7946.8513.6339.4163.6054.5865,1.1162,1.5609.7285.823.2933.1135.2176.2271-.35.3878-.3879.227-1.523.2365-1.5514.6149-.6432.4068-.6055.1514-.2838.2553-.1892-.0377-1.2864.52-.0568.4258-.17-.1041-.1418-.0473h-.17l-.1609.1135-.2553.2554-.2744.35-.6621.6433-.1136.0946-.1418.1136-.3406.208-.18.0757-.227.0379h-.1892l-.19-.01-.2932-.0379-.1514-.0377-.1609-.0569-.1418-.0661-.1608-.0853-.123-.0851-.0946-.0756-.1514-.123-.1609-.0284-.2459.01-.2081.0946-.1608.0568-.1607-.01-.1325-.0189h-.1986l-.1419.0189-.0946.0662-.123.3122-.104.2648-.0852.1042-.1608.0851-.2554.0284-.16-.0568-.104-.0946-.3121-.3311-.1987-.1419.1608-1.23-.0189-1.8068-.4824-.6907-1.069-1.0311-.5013-.53-.17-.4068-.5581-1.2109-.123-.8986-.3595-1.22-.1609-.104-.2742-.5015-.2272-.7094-.4067-.7473-.104-.473-.2744-.6054-.9176-1.5326-.0568-.3217.0757-.9648-.3878-.7663-1.77-1.7124-.6055-.2933-.4446-.34-.4446-.0757-.3973-.2176-1.3528-.9175-.6242-.53L77.4192,38.15l-.4067-.6905-.2649-.3311-.5684-1.3623-.1608-.823,2.838-1.3716.804-.2744.492-.3121L81.42,32.729l.71-.0284.3312-.1891,4.5122-.8229.8042-.246.0567-.246-.1986-1.93.0472-.6432.246-.7285,1.1163-2.11,4.588-1.9962.4446-.0945,2.0149-.9743,1.0974.0756"/>
        {/*<!-- San catarina ixtahucan -->*/}
        <path onClick={handleClicked} id="Santa-catarina" className="c" d="M60.4294,39.2564l.5676.3972.8136.9177.3877.8231.01,2.4026-.1514.9555-.17.7568-.6727,1.7213-.1041.8324.3028.4825.9742.719.18.0473,1.1636,1.0216.6149.4069L65.49,51.8848l.227.5865-.2742.36-1.0785.87L63.2193,54.96l-.0662,2.0055-.5581,1.22-.4163.4635-.4445.6527-.577.4636-.6244.7284-.5014.2554-.7851.9649-.18.3877-.6148.6812-.4163.5013-.35.6718-.1419,1.0879.1609,1.0121.104.1514.1135,1.4285-.6716.7567-1.0879,1.2393-.3216.6716-.0379.3878-.1135.0757v.331l-.3973,1.2488.1135.2837.0852,1.419.123.2177.1607,2.1473.0284.9649L55.15,78.6184l-.2743,1.7121-.5109,1.05-.3784,1.0406-.2459.0662L52.88,83.15l-.2743.5392-.473.52-.7662.1229-.5677-.4162h-.4446l-.6906.577L48.85,84.36l-.9744.804-.52.0379-.7474-.4635L45.52,84.814l-.6244-.227-.6811-1.0122-.5485-.454-.3217-.01-.5581.17-.8041-.18-.4446.1135-.3879.3406-.52.1986-1.4852.0852-.454.2081-.3879.4257-1.4.1608-.52.3785-.18.2647-.0946.6434.1608.7851-.7946.946-1.0217.9933L33.3458,89.78l-.4825.8419-.2554.596-.3122.454-.0568.227.01.2933.0852.123.0946.0851.0378.2365-.0378.2081-.0758.2271-.1891.17-.36.0946-.4825.0474L29.978,93.28l-1.2771.0757-2.8-.4825-1.6175-.0189-.227-.0946.6336-1.296,1.9488-1.9865.5487-1.1068.8892-.9366.6717-.6242.2554-.4258.9649-2.4029.6148-.35.4447-.17,1.8068-.1135L34.49,83.054l.1135-.0567.123-.1135.0568-.17-.01-.208.01-.2555.0662-.18,1.0122-.7567.53-.1325.3311-.1986,1.0312-.104.8608-.35.8137-.17.5581-.2554.227-.227-.0756-.615-1.4-1.2486-.8608-1.1163-.4258-.7946-.2742-.8609-.1987-1.1352-.019-.9838.0852-.9742.0662-.2839.0946-.2459.0379-.18.2175-.4637.369-.9081.104-.2837.0851-.17.1609-.3974.69-2.1852.36-.946.2649-1.3812L39.42,60.9469l-.3123-1.4851-.6432-.9365-.4824-.4447.0661-.7095.1135-.0851v-.123l.5771-.6716,1.4474-1.769,2.4879-2.4879.7189-.7.4351-.6055.6055-.8609.5393-.473.1986-.3877.7184-1.0968.1514-.492.0567-1.0973L47.1,44.7523l.7568-.88.5014-.7948.1891-.5107.492-.473.7473-1.0594.2365-.369.492-.1514.6432.0568.2649.18.5109-.0378.6431.104.2649.18.577.0567.7853.0568.7-.1324,1.1541.0189.87-.5109,1.0027-.3689.5109-.4918.9554-.3218,1.0311-.0472"/>
        {/*<!-- San andres semetabaj -->*/}
        <path
          onClick={handleClicked} id="San Andres" 
          className="c" d="M117.557,42.1889l.2743.2365.53.7284,1.2581,1.06.5959.1891-.7567,2.5636-.4634,1.0974-.2933,1.1825-.142.2081-.7189,2.6866-.4541.9555-.3026,1.8351-.2649.9271-.019.52.1893.3879,1.1635,1.22.8041.4635.34.3974.1136.35.0284.7-.3122.53-.2837.17-.5771.5675-.5487.4542-.2648.4067-.0852.4446-.1513,1.0879.0756.3784.4825.8325.8324.8041.227.6054.3879.5676.2651,1.8539-.17,1.7026-.1513.6244-.2081.227-2.7812-.17-2.5637.2839-.5865-.2271-1.2109-.9365-.3688-.123L109.8188,68.6l-.1892-.52-.9553-1.296-.0946-.4352-.6906-1.4852-1.0784-1.6366-.369-.9649-.4351-.7474-.6149-.8134-.596-.5581-.36-1.3431.0473-.8418.4352-.9082.6432-.3595.2082-.246,1.0973-.8041.8041-.331.9649-.5771.71-.7379.2365-.3784.9177-.53.35-.1609.53-.5675.1135-.3028-.0662-1.0972-.2365-.4257.0757-.7757.3595-.1514.7095.0474.3973.1986.35-.1514.5487-.946.3026-1.315.17-.1891.1608-.52.4067-.5771.17-.5107.8986-1.4569.3595-.369.2554-.5581,1.0217-1.0595.18-.0094"/>
        {/*<!-- Concepcion -->*/}
        <path
          onClick={handleClicked} id="Concepcion" 
          className="c" d="M105.4578,44.4119l-.0379.9649.596.719.473.53.7.4825.8418.5393.823.804.4541.1892.5865.5108,1.3717.6055-.0757.7757.2365.4257.0662,1.0972-.1135.3028-.53.5675-.35.1609-.9177.53-1.873.104-1.0121.2083-.9365.5012-.7379.6718-.2176-.2271-.2933-.1135-.7285-.823-1.1162-1.5609-.6054-.5865-.6339-.4163-.7946-.8513-.17-.3973.0947-.5108-.0663-1.419.1419-.87,2.1285-1.5419,1.4852-1.3149.5014-.0947.71.0379"/>
        {/*<!-- San jose -->*/}
        <path
          onClick={handleClicked} id="Santa-Jose" 
          className="c" d="M85.1,45.793l.0568.3217.9176,1.5326.2744.6054.104.473.4067.7473.2272.7094.2742.5015.1609.104.3595,1.22.123.8986.5581,1.2109.17.4068.5013.53-1.41.4636-1.2961.9554-.7946.8325h-.9451l-4.0015.5392-.4824-.18-.7474.0094v-.18l-.0095-.2365.1893-.7946.1135-1.6745.104-.1512.1041-1.1637.2838-1.3906.4824-1.5135.6906-1.3054.4918-1.5041.3689-.6434.4447-.52,1.0122-.6528.6244-.1514H85.1"/>
        {/*<!-- panajachel -->*/}
        <path
          onClick={handleClicked} id="panajachel" 
          className="c" d="M109.5822,53.6163l-.2365.3784-.71.7379-.9649.5771-.8041.331-1.0973.8041-.2082.246-.6432.3595-.4352.9082-.0473.8418.36,1.3434-.6338.7755-1.0974,1.2488-.1418-.0473-.1988-.1513-.1419-.0947-.1891-.0756-.142-.0379-.1986-.0283-.2744-.0189-.7189.0094-.2081-.0189-.1135-.0379-.2176-.0946-.1986-.1229-.123-.142-.0852-.17-.0946-.1324-.085-.0946-.35-.2743-.3974-.34-.1229-.1988-.0378-.1323-.0474-.1419-.0851-.1893-.0189-.1986.0189-.6433-.0189-.17-.0946-.0945-.17-.0853-.123-.0188-.2176-.0757-.1229-.0567.0568-.4258,1.2865-.52.1892.0377.2838-.2553.6054-.1514.6432-.4068,1.5514-.6149,1.523-.2365.3879-.227.35-.3878.7379-.6718.9365-.5012,1.0121-.2093,1.873-.104"/>
        {/*<!-- santa cruz la laguna -->*/}
        <path
          onClick={handleClicked} id="Santa-Cruz" 
          className="c" d="M89.2342,55.0542l1.069,1.0311.4823.6907.019,1.8068-.1609,1.23-.1417-.0284H90.36l-.1514.0568-.18.0946-.1514.0662-.246.0662-.1514.0378-.1324.0284-.18.0189-.1135-.0094-.2176-.0474-.1892-.0661-.1892-.0284-.1324.0378-.17.0946-.104.0946-.1135.1987-.0567.17-.0946.1609-.1514.1324-.18.0946h-.5392l-.2838.0094-.1608-.0189-.18-.019-.1325-.0095-.18-.0094-.17.0663-.1325.0661-.2553.17-.1514.1135-.1986.1986-.2744.34-.0946.0758-.1324.0851-.1893.0379-.1986.0188-.2838.0663-.1229.0284-.1136.0188-.17.1042-.1136.0946-.0851.0945-.123.18-.0757.0947L83,62.9148l-.2648-.1135-.35-.3028-.1419-.0567-.1229-.0379-.1419-.0284-.179-.0751-.1325-.0758-.1986-.104-.18-.01-.227.0852-.1418.0757-.1419.0945-.1136.0569-.18.1512-.0567.1419-.2743-.104-.123-.35-.8514-.9839L78.97,60.73l.1514-.6811.3595-.8893.0756-1.4852.7474-.0094.4823.18,4.0016-.5392h.9459l.7946-.8325,1.2961-.9554,1.41-.4636"/>
        {/*<!-- san marcos la laguna -->*/}
        <path
          onClick={handleClicked} id="San-Marcos" 
          className="c" d="M79.0082,57.0505l.5391.2081.0095.2365v.18L79.4812,59.16l-.3595.8893-.1514.681.2081.5486.8514.9839.123.35.2743.104.0285.2083.0377.1891-.0189.2649-.0473.3878-.1608.1324-.3406.142-.1229.0473-.1609.0472-.1135.0379-.1324.0567-.2365.0284-.1229-.0094h-.369l-.1514.0757-.1419-.01-.1607-.0945-.0853-.0947-.1419-.0946-.2081-.0756-.1607-.0474-.1419.0284-.17.0946-.17.104-.1987.142-.123.104-.1135.1514-.0662.1135-.0568.1041-.1608.0378-.1419-.104-.0568-.123-.1323-.52-.0758-.18-.1514-.123-.18.0283-.2365.1514-.1229.1135-.0946.0946-.123.123-.1135.18-.0758.1607-.0188.17.01.1514V65.11l-.17.2176-.1419.123-.4351.2365-.1608-1.22-.2459-.7757L73.54,62.48l-.0851-2.8474-.52-1.4,1.6555-.265.3311-.1986,1.3528-.4256,2.0339-.3784.7.0851"/>
        {/*<!-- san pablo la laguna -->*/}
        <path
          onClick={handleClicked} id="San-Pablo" 
          className="c" d="M72.9348,58.2328l.52,1.4L73.54,62.48l.2081,1.2108.2459.7757.1609,1.22-.2744.123-.3784.18-.227.0945-.1513.0662-.18-.01-.2176-.0377-.2459-.0663-.17.0189-.1324.0662-.3312.17-.3026.17-1.1068-.7379-.6905-1.41.0189-5.0515-.1325-.2838,3.3014-.7473"/>
        {/*<!-- santa clara la laguna -->*/}
        <path
          onClick={handleClicked} id="Santa-clara" 
          className="c" d="M62.8413,58.5071l.3121.1892.823.1514,1.9393.1608,1.4852-.123.7663.1041,1.4662-.01.1325.2838-.0189,5.0515.6905,1.41-.4162.3026-.4824.1514-.3216.2649-.7664.7946-.3405.4257-.0379.18-1.0972,1.3432-.4636.4918-.88.7473-.7851.3595-1.6367.3879-1.4662.0284.0662-.1514.1894-.4919.3406-.4635.1324-.4919.53-.7851.9934-1.5515.5391-.7189.5865-.3879.3311-.35.1419-.4162.3123-.492.17-.6527-.3405-.6622-.842-.8986-.2176-.1325-1.93-.0663-.8324-.2837-.3878-.35-.5582-.6149-.0283-.1892-.4068-.5581.6244-.7284.577-.4636.4445-.6527.4163-.4635.246.3216"/>
        {/*<!-- santa catarina palopo -->*/}
        <path
          onClick={handleClicked} id="Santa-catarinas" 
          className="c" d="M105.3916,60.7018l.6149.8134.4351.7474.369.9649,1.0784,1.6366.6906,1.4852.0946.4352.9553,1.296.1892.52-.2743.3688-.53.4353-.3879.577-.1891-.0663-.2365-.0472-.17-.0757-.1891-.0852-.1514-.0851-.1419-.0756-.1041-.0568-.104-.2365-.0662-.1419-.1608-.0946-.2176-.0189-.104-.1325-.0285-.2081-.1324-.123.0284-.18.0756-.1892.0474-.1608.0284-.2082-.0379-.1324-.1324-.17-.0284-.1136-.0189-.208-.0189-.2365-.0568-.1893-.0567-.1325-.0379-.18-.0284-.18-.0284-.1325-.0472-.1408-.0474-.1135-.0283-.17V65.574l-.0189-.2081-.0758-.1514-.18-.246-.2175-.2175-.1135-.142-.0663-.1891-.1325-.1041-.17-.0568-.1608-.0189-.1892.0379-.0946.0756-.17.0663-.2081-.3028-.1324-.227-.01-.1608-.0284-.3217-.0662-.104-.1324-.1418-.17-.265-.104-.1608-.0757-.1135-.0851-.1041-.0757-.0851-.1041-.1135-.2081-.104-.1892-.0474,1.0974-1.2488.6338-.7755.596.5581"/>
        {/*<!-- santa maria visitacion -->*/}
        <path
          onClick={handleClicked} id="Santa-maria" 
          className="c" d="M60.5331,60.4937l.4068.558.0283.1893.5582.6149.3877.35.8325.2837,1.93.0663.2176.1325.842.8986.3405.6622-.17.6527-.3123.492-.1419.4162-.3311.35-.5865.3879-.5391.7189-.9934,1.5515-.53.7851-.1324.4918-.3407.4636-.1891.4919-.0662.1514-.4351.946-.1514.5486-.2839.473-.4351,2.0812-.3691,1.4379-.123.1324-.1135.7663-.2744.4352-.3878.1891-.7663.0758-1.296-.53-.3784-.35-.1325-.2743-.823-.719-.1607-2.1473-.123-.2177-.0852-1.419-.1135-.2837.3973-1.2488v-.331l.1135-.0757.0379-.3878.3216-.6716L57.25,68.3925l.6716-.7567-.1135-1.4285-.104-.1514-.1609-1.0121.1419-1.0879.35-.6718.4163-.5013.6148-.6812.18-.3877.7851-.9649.5014-.2554"/>
        {/*<!-- san juan la laguna -->*/}
        <path
          onClick={handleClicked} id="San-juan" 
          className="c" d="M70.4375,65.725l1.1069.7379-.123.104-.1135.1325-.0662.1512-.0474.2555-.0189.1892-.01.1324-.0379.123-.208.1229-.2081.1136-.1514.1041-.1041.1041-.0851.1512-.0378.1325-.0851.3311-.0285.1514-.0094.2649-.01.2365.0284.1986.0662.2175.0379.1136.1419.1419.4539.454.35.2649-.2365.2744L71.0133,73l-.3594,3.5285L70.19,77.8335l-.2836.2649-.8974,1.2109-.17.9648-1.1635,1.769-.596.7757-.5393.4258-.2459.4161-.2271.1041-.1986.227L64.071,85.1932l-.5676.0946-.6054-1.05-.4446-2.0055-.2649-.2743-.1892-.0189-.4446.2081-1.0216,1.1635-.2649.1609-.5486.7662-1.2961,1.0879-1.0311.4545-.9554-.1513-.246-.3028-.1608-.1892-.01-.454-.4446-.0474-.4825-.1986-.1419-.2649.0379-1.1541-.3784-.36-.6244-.2365.3784-1.0406.5109-1.05.2743-1.7122.6527-1.2392-.0284-.9649.823.719.1325.2743.3784.35,1.296.53.7663-.0757.3878-.1891.2744-.4352.1135-.7663.123-.1324.3689-1.4379.4351-2.0812.2839-.473.1514-.5486.4351-.946,1.4661-.0284,1.6367-.3879.7851-.3595.88-.7473.4636-.4918,1.0972-1.3433.0379-.18.34-.4257.7664-.7946.3216-.2649.4824-.1514.4162-.3026"/>
        {/*<!-- san antonio palopo -->*/}
        <path 
          onClick={handleClicked} id="San-antonio"
          className="c" d="M109.8188,68.6l1.6272,1.3811.3688.123,1.2109.9364.5865.2271,2.5637-.2839,2.7811.17-.2081,2.1947-.18.3974-.1419.0945v.1325l-.4161.5486-1.0121.9-.3689.577-.01.1986-.1892.1514-.2743.7946-.1419.1325-.18,1.0123-.1324.1607.0189.123-.6243,1.1825-.4635.5392-.6044,1.0121-.2838.5487-.8136,2.2326-.1514.0756-.0284.1987-.7188.8419L111.55,86.3l-.35.6621-1.9582-.2932-2.3649-.6338-1.3433-.227-.1514-.1136-.1324-.5581.104-.1608.0757-.1609.0852-.4446.0283-.3026V83.84l-.0188-.2459-.0285-.2176.019-.2271.123-.2743.0661-.0851.1514-.1419.0946-.0758.1325-.18-.01-.2365-.0756-.1324-.2555-.3027-.0852-.0947.01-.2175.0852-.142.123-.1418.1418-.1041.1987-.1418.1325-.0663.17-.0756.1135-.0663.104-.0757.1609-.1514.2176-.1986.1986-.2174.18-.2271.0379-.17-.019-.17-.0473-.1419-.0378-.18v-.1418l.0472-.123.17-.0379h.1418l.52.0473.18.0094.1892.0473.1514.0852.1418.0189.2838.01.2081.0189.1609-.0379.104-.123.0851-.18.0379-.1514.0568-.2932.0662-.246.0189-.1325-.01-.1419-.0284-.123-.0284-.1419-.0094-.1891-.0189-.18-.0852-.1987-.0567-.104-.0568-.2554.0379-.17.104-.1229.1419-.1135.0284-.2083-.0189-.1607-.104-.1325-.1325-.1419-.0663-.0946-.104-.1608-.0378-.1419-.0094-.246-.019-.18-.0663-.2365-.104-.2554.0189-.1986.0663-.18.0472-.1325.0379-.2553v-.1514l-.0189-.1419-.0283-.1325.0473-.2459.0283-.1136.0283-.1229.0284-.1987.0474-.34.0377-.1419.0758-.1892.0189-.1987.0188-.3878-.0661-.1893-.1419-.0756-.1514-.0851-.0662-.1608-.0662-.1514-.0947-.0851-.123-.0945-.1135-.0758-.18-.104-.17-.0757.3879-.577.53-.4353.2747-.3686"/>
        {/*<!-- san pedro la laguna -->*/}
        <path
          onClick={handleClicked} id="San-pedro" 
          className="c" d="M73.9471,70.2467l.1892-.0473.1419.0473-.0189.1513-.0474.1325.1135.104.1419.1325.0663.104.0662.17.0473.1892.019.1324v.142l.0283.1135.104.104.1042.0663.123.0756.0945.0662.1136.0852.0851.0757.1514.17.104.17.104.1419.142.123.1324.1041.123.0945.104.0758.123.0567.1513.0568.1609.123.473.4918.2175.1893.2176.1514.17.1228.1892.123.17.1042.1513.0567.1418.0473.2838.0662.123.0284.1419.123.142.123.17.104.1135.0379.1609.0378.1419.0568.104.0567.1419.104.1136.0852.0756.0946.0851.1325.0946.0661.1514.0946.2365.17.1324.1041.1135.0851.1041.1324.0094.2082-.0567.18-.0378.17v.1986l.0661.1135.1325.1891.0473.2083-.0189.1607-.0189.18.104.1418.1041.038.1041.0379.1229.0567.1136.0473.0946.0662.0946.0757.0473.2081-.1042.2648-.2742.6432-.0568.1325-.0851.1419-.0663.1419-.0567.1892-.019.1324-.0189.1514-.0662.1608.0473.1419.2176-.1041.1419-.0945.17-.0568.1986-.0189.2176.0662.1419.2081.0473.18.1135.2176.019.18-.0663.1041-.2176.2459-.1419.0569-.2554.0189-.1892.0946-.0661.1324-.0569.123-.0284.2081-.0188.1609-.1608.2932-.1609.2649.01.1986.0945.18-.0094.1419-.0567.1418-.0757.1135-.1514.1893-.104.1135-.17.0946h-.1608l-.2177-.0284-.1324-.0283-.1229.0662.0378.1324.1135.1419v.1513l-.0945.2177-.1514.1607-.1135.0851-.1607.123-.1514.0758h-.1986l-.142.0661-.0284.1514-.0378.18-.123.1988-.1608.17-.104.2082-.0947.1891-.18.1135L78.26,86.47l-.1325.0663-.1512.1324-.1136.123-.1419.17-.104.1136-.17.1607-.18-.01-1.21-.056-.6434.0853L73.4268,88.296l-1.3622,1.1162L70.57,90.8406l-1.069,1.2866L68.4793,93.66,65.698,92.62l-1.7122-1.0878-2.5824-1.8072-.8608-.6527-.6811-.596.0189-.4541.123-.1419.36-.104,1.23.01.4351-.123,1.0973-1.1162.4825-.5583-.1041-.7.5676-.0946,1.7974-1.2014.1986-.227.2271-.1041.2459-.4161.5393-.4258.596-.7757L68.84,80.2747l.17-.9649.8988-1.2109.2837-.2649.4636-1.3055L71.0151,73l.0285-2.0716.2365-.2744.104.1325.0947.1135.17-.0189.1608-.17.1324-.0853.1513-.0567.2176-.0568h.1324l.0947.0758.0378.123.0852.2175.17.123.1609.0189.18-.104.3311-.4068.1893-.17.123-.0851.1324-.0567"/>
        {/*<!-- santiago atitlan -->*/}
        <path
          onClick={handleClicked} id="Santiago-atitlan" 
          className="c" d="M98.259,75.5064l.1324-.0662.1041.0662.0756.1419.0284.17v.1988l-.0284.1891-.0377.17-.0285.123.0946.0851.18.0474-.0189.2459-.0568.2081v.142l.0663.1229.1324.0662.0756.18v.1514l.1136.104.17-.0094.4446-.246.1135-.0283.0567.123-.17.2365-.0758.1135-.0377.1135v.1419l.2081.0851.1513.0851-.0094.142-.0379.123-.01.1607.1609.0473.1419-.0378.1608-.0946.2837-.1986.2081-.142.1135-.1324.0284-.1419.0284-.1324.0946-.1229h.1324l.1325-.0474.0756-.104.123-.0474.2744.2839.0851.0851.0474.1419-.0947.123-.123.123-.1513.0945-.17.0379-.1514.0189-.18.0189-.17.0378-.0473.1609.2932.1135.142.0662-.019.17-.123.0567-.0661.18.0094.1419-.4257.123-.7757-.0474-.5014.1136-.4445.4255-.1514.4636-.2932.4541-.5108.473-.7474,1.3055-.3311.946-.2744.35-.6811,2.4785-.3216.7757-.7379,1.22-.8514.9649L93.6708,91.03l-.7946,1.154-.1892.6717-.0567.7757.17.53.6054.8042.7946.7567,1.0123.6623.5865.5108,1.05,1.1346.2365,1.3149.1229,1.5513-.3689,2.1285L92.8,99.9882l-.4919-.473-.7661-.681-.7569-.5014-.87-.227-.8988-.0379-.4351.2175-.4825.4353-3.0177,3.8028-.2648.3972-1.0028.7663-1.1257.2555-1.7028.6432-2.8379,1.9677-1.9392,1.892-.5015.785-.0662.842.2743.6716-.18.5486-.3785.35-.9744.18-1.2676-.8041-.473-.52.0378-.6432.246-.18.9933-.3594.3216-.208.227-.3216.123-.4636-.15-.8227-.1228-.1419-.5109-.8609-.6811-.823L71.9227,103.12l-.1988-.6812-.1417-.1325-.4257-.4635-.9172-.3028-.6527-.4163-.8609-.2648-.4635-.3784-.0758-.2175-.2459-.36.0473-.71.6149-1.7123.0567-.9081.2365-1.069-.0945-1.419-.3221-.4251,1.0216-1.5325L70.57,90.841l1.4946-1.4283,1.3622-1.1163,1.9865-1.0405.6434-.0853,1.2109.0568-.0569.2365.1609.1892.0851.0947.1041.1891.0662.2271.0283.2175-.0472.1609-.0379.1135-.0378.18.0473.1419.104.0946.1514.1514.0473.1324v.3216l-.0473.2176-.0568.17-.0284.1418-.0188.1514.0283.2081.1608.2555.0851.1512.1325.123.123.0663.1514.01.1608-.0474.2365-.2459.1324-.2176.0947-.1324.1323-.1514.1893-.18.1607-.1513.123-.1135.1418-.123.1041-.1419.0662-.1418.0852-.1325.1419-.17.104-.1135.1514-.123.1892-.1419.1892-.123.1987-.1325.104-.0567.1419-.0946.1041-.1419.104-.4163.0379-.2175.0662-.18.0568-.1135.104-.1325.1135-.0946.142-.104.1607-.0852.1609-.0757.1608-.0756.123-.0568.18-.123.0851-.1135.0189-.17-.0094-.1988-.01-.1514.01-.1418.0473-.1324L83.01,85.61l.104-.1514L83.01,85.27l-.123-.1135-.0756-.1136-.1041-.17-.2271-.0568-.1513-.0188-.104-.123.0282-.2082.0853-.227.1986-.4541.17-.18.1608-.104.17-.0947H83.7l.18-.01.0946-.17.019-.2081.0377-.3122.01-.1608-.1041-.1892L83.5582,82.1l-.1607-.1418-.123-.1419.0567-.1893.35-.2837.1609-.0663h.2459l.1514.01.1608-.019.2365-.3121.0662-.17-.0473-.18-.0756-.2649-.019-.1325-.0094-.1323.0567-.18h.1229l.18.0756.1325.0569.18.0188.2554-.0663.1135-.0755.1041-.1325.0568-.123-.019-.7189.1041-.1419.1986-.0757.1135-.1135-.0661-.1325-.2649-.104-.1513-.0662-.1419-.1136.0661-.0946.7946.2555.1135.0473.1514.0851.123.0284.227-.0094.1609-.0569.3027-.17.2175-.0663h.123l.1609-.0094.18.0378.17.17.1135.1418.18.0473.1607-.0189h.123l.17.01.0756-.1041-.01-.18-.0472-.1608-.0189-.1325V77.89l.0284-.17.0945-.0757.2838.0946.18.0663.1891.01h.123l.1609.0283.1513.1135.1135.1514.2175.0663.17-.0947.0947-.1513.0567-.18-.0094-.1608-.0283-.18-.0379-.1419-.01-.1324-.0284-.2554L90.795,76.66l.1419-.1892.1986-.0756.1135-.0284.1609-.0379.1609-.0284.1323-.01.123.01.2177-.01.1323-.1323.1325-.0852.1229.0757.2555.2554.0945.0662.1325.019.123-.0569.104-.104.123-.1135.085-.0749.123-.0662.1418-.0757.1893-.0473.1419.0094.1513.0946.1987.0663h.1418l.1988-.0473.1891.0568.1514.0567.17.0094.17.0474.2459.0472h.3406l.1891-.0283.1893-.1135.18-.123.18-.0189.123-.0379.1607-.0472.1514-.0663.1609-.123.1324-.0946.1323.142.0947.1229.123.0285h.2176l.123.0472.0756.123.1324.0663.019-.142-.0284-.1892-.01-.1608.01-.17"/>
        {/*<!-- Nahuala -->*/}
        <path
          onClick={handleClicked} id="Nahuala"
          className="c" d="M65.7075,27.5356l.1988.3311.293,1.9771.473,2.138.2649.3215,1.5521-1.0125,1.4-.4256,1.74-.3024,1.3905.227.8609.5487.823.8231.5676.9931.4163,1.3717.3311.4162.1608.823.5676,1.3623.2649.3311.4067.6905L79.15,39.9754l.6242.53,1.3528.9175.3973.2177.4446.0756.4446.34.6055.2933,1.769,1.7122.3878.7663-.0757.9648h-.6432l-.6244.1514L82.82,46.597l-.3973-.9082L82.29,44.4117l-.3213-.3971-1.031-.3689-1.9772-.3406-.71-.2365-.6621-.4824-.53-.9271-.5013-.4067-.4542-.2081-.8135-.1608-1.1541.104-.473.1514-.9081.7472-1.2014,1.0312-1.1068.4162-.7095.17-.6716.1419-1.9771.3027-.719.3689-.0757.1325-.0283.4635-.0095.4351.3595,1.0218.1418.5865.1419.4256.17.4162.2743.4637.1324.2742.3312.7285.2081,1.5987-.0757.2458-.9081.7947-1.315.5676-.227-.5865-1.1437-1.1443-.6149-.4069-1.1636-1.0216-.18-.0473-.9742-.719-.3028-.4825.1041-.8324.6716-1.7217.17-.7568.1514-.9555-.01-2.4026-.3877-.8231-.8136-.9177-.5676-.3972-1.0311.0472-.9554.3218-.5109.4918-1.0027.3689-.87.5109-1.1541-.0189-.7.1324-.7845-.0567-.577-.0567-.2649-.18-.6431-.104-.5109.0378-.2649-.18-.6432-.0568-.492.1514-.2365.369-.7473,1.06-.492.473-.1891.5107-.5014.7948-.7568.88-1.0028,1.769-.0567,1.0973-.1514.492-.7189,1.0974-.1986.3877-.5393.473-.6055.8609-.4351.6055-.719.7-2.4878,2.488-1.4474,1.769-.5771.6716v.123l-.1135.0851-.0661.7095.4824.4447.6432.9365.3123,1.485.0756,3.7556-.265,1.3809-.36.946-.69,2.1852-.1609.3974-.0851.17-.104.2837-.369.908-.2175.4637-.0379.18-.0946.2459-.0662.2839-.0852.9743.019.9838.1987,1.1352.2742.8609.4258.7946.8608,1.1163,1.4,1.2486.0756.6149-.227.227-.5581.2554-.8137.17-.8608.35-1.0312.104-.3311.1986-.53.1325-1.0122.7568-.0662.18-.01.2555.01.208-.0568.17-.123.1135-.1135.0567-1.6554.2933-1.8068.1135-.4447.17-.6148.35-.9649,2.4029-.2554.4258-.6717.6242-.8892.9365-.5487,1.1068L24.69,91.4651l-.6337,1.296-.7473.1987-.3405.3783-.3974,1.192-.5676-.01-.454.1988-.4541-.246-.227-.2649-.1983-.1509v-.53l-.4068-.1419-.8608-.1987-.2271-.0284.0567-.1514.246-.53.0946-.18.0663-.1041.5581-.719.2743-.3878.0567-.1513.0474-.1514.0946-.1514,1.05-1.2864.227-.473.4542-.719.36-.7757.1418-.2649.1987-.3689.4541-.8041.7378-1.2676.4256-1.5988.2839-.577-.4069-3.85-.4919-1.5514-.5959-3.33L23.3,71.3811l.1041-1.6175-.0284-1.419-.0567-.2555-.2176-.2365.36-.7095.2931-.6433.3121-1.2676.123-.123.1042-.2743.4162-.4067.6716-.3785.1324-.104.9083-.36.8324-.473.5865-.6054.6622-1.0595.3216-.5015.7663-.7946.6243-.2933.3217-.0188.7284-.2649,1.41-.1419.17-.0662.3878-.52.1229-.123.1325-.5014.01-.5771.227-2.9136.0946-.5675.18-.265,1.1233-1.0586,3.7935-4.0677,3.0839-3.1406.2365-.35.4257-1.8637.1418-1.1636.3784-1.4661-.0284-.6717,7.1518-4.56.7851-.5865,1.0689-.7379.5486-.36L53.05,33.59l-.0662-.2554-.2365-.6334-.1041-.3879.8136-.6052,2.9041-2.2042,2.3934-1.9393,1.9866.0946,4.9663-.123"/>
        {/*<!-- san lucas toliman-->*/}
        <path onClick={handleClicked} id="SanLucas" className="c" d="M101.1346,79.593l.0567.1136.1041.1229.0094.1987-.0189.1229.0568.1325.123-.01.1325-.0284.1607.1042.1325.0661.1135-.0756.1892-.0473.1041.0568.104.085.1609.0284.18-.0567.1514-.0474.17.0851.1041.0758.1324.1324.0473.1136v.18l-.0473.1893-.0378.18.2081-.0189.1419-.0473.1892.0662.01.1135v.1892l.1135.1041v.3122l-.01.35.0284.1891.17.0947.0946.1608-.0663.2175-.3972.4447-.0852.1608-.0473.1324-.0568.1419-.123.1514-.0661.17.104.123.2176-.0189.1514-.0472.17-.0379.1324.0568.2555.2176.1608.2081.0378.1324-.0378.17-.1135.123.0662.1609.1892.0094.1419-.0189.1135-.0379.2933-.1513.1324.5581.1514.1136,1.3433.227,2.3648.6338,1.9583.2932-.3879,2.7339.0757.7-.53,3.7178-.246.596-.2933,1.3149-.1892,2.1284-.0189.8418.246,1.788.0567,3.5569-.0378,3.0366-.1893,1.7406-.17,1.0785-.3405.9744-.5676.5865-.6244.4162-.1608.0189-.0189-.2081-.0851-.1608-.123-.123-.1608-.0946-.1987-.0568-.18-.0567-.123-.0568-.123-.123-.0379-.1892.0284-.1514.0378-.1607.0189-.1514-.0094-.1135-.0283-.1419-.0379-.17-.019-.1323-.0094-.1893.0094-.2365v-.3026l-.0189-.2839v-.2554l-.01-.1986-.0283-.3311-.0189-.1893-.0284-.17-.0284-.1419-.0378-.1608-.0378-.1418-.0569-.18-.0472-.123-.0663-.1514-.104-.1512-.0851-.1135-.0851-.123-.1135-.1514-.0663-.1041-.1514-.2081-.1041-.0852-.1324-.0756-.1513-.0379-.1987-.0283-.1892-.01-.1891-.0473-.4636-.0379-.5771-.2175-.8608.0662-.5677-.0378-.577-.0568-.4541-.2081-.7189-.5487-.3027-.123-.8988-.0757-.6337-.2648-1.92-1.3812.3689-2.1285-.1229-1.5513L96.849,98.03l-1.05-1.135-.5865-.5108L94.2,95.722l-.7946-.7567L92.8,94.1611l-.17-.53.0567-.7757.1892-.6717.7946-1.154.4162-1.3906.8514-.9649.7379-1.22.3216-.7757L96.679,84.2l.2744-.35.3311-.946.7474-1.3055.5108-.473.2932-.4541.1514-.4636.4446-.4256.5013-.1135.7757.0473.4257-.123"/>
        <polyline className="d" points="128.1 38.239 127.71 37.974 127.52 37.671 127.17 36.886 126.95 36.29 126.56 35.429 126.48 34.654 127.06 31.882 127.25 31.702 127.43 31.172 127.9 30.406"/>
        <polyline className="d" points="76.215 -0.991 76.537 -0.112 76.896 0.446 76.934 0.702 77.634 1.846 77.946 2.31 80.491 1.723 80.993 1.449 82.09 1.478 82.497 1.648 82.705 1.856 83.093 2.499 83.074 2.944 82.629 4.136 82.27 4.495 82.232 4.675 81.749 5.318 80.879 7.03 81.011 7.522 81.551 8.156 81.607 8.535 81.626 9.566 81.097 10.691 82.071 10.786 82.222 10.691 82.932 10.654 86.139 10.644 86.574 11.023 87.274 12.12 87.861 12.678 88.154 13.161 88.4 13.492 89.412 14.674 92.818 18.95 94.095 20.397 94.189 20.624 96.043 22.734 97.141 22.81 99.421 23.207 99.818 23.633 99.856 23.888 100.6 25.118 100.63 25.96 100.42 27.956 100.49 28.126 100.78 28.24 101.84 29.053 102.46 29.347 102.75 29.697 103.08 29.886 103.64 29.715 104.8 29.129 105.7 29.053 106.36 29.876 107 31.049 107.63 31.967 108.42 32.714 109.14 33.376 112.56 36.035 113.17 37.132 113.42 38.39 113.27 38.788 112.77 39.298 112.31 39.488 110.09 39.894 109.31 40.301 109.09 40.519 108.11 41.512 107.65 42.685 107.24 43.234 106.58 43.962 106.34 44.142 105.41 44.426 105.37 45.391 105.97 46.11 106.44 46.639 107.14 47.122 107.98 47.661 108.8 48.465 109.26 48.654 109.84 49.165 111.22 49.771 111.58 49.619 112.29 49.666 112.68 49.865 113.03 49.714 113.58 48.768 113.88 47.453 114.06 47.264 114.22 46.743 114.62 46.166 114.79 45.655 115.69 44.199 116.05 43.83 116.31 43.272 117.33 42.212 117.51 42.203 117.78 42.439 118.31 43.167 119.57 44.227 120.17 44.416 120.61 44.17 123.71 43.953 125.41 43.536 126.69 42.912 127.96 42.326"/>
        <polyline className="d" points="11.577 -0.216 11.435 0.399 11.473 0.588 11.492 0.863 11.492 1.175 11.558 1.619 11.69 2.092 11.766 2.253 11.955 2.641 12.106 2.953 12.229 3.294 12.447 3.71 13.298 4.438 13.506 4.76 13.79 6.879 13.97 7.097 14.292 7.39 12.806 8.658 12.56 8.847 12.192 9.093 11.056 9.973 9.997 10.739 9.183 11.335 8.417 12.063 9.041 12.054 10.054 11.846 12.485 11.193 14.774 10.521 14.907 10.625 15.294 11.723 15.465 12.214 15.692 12.896 16.6 15.213 17.092 16.462 17.347 16.992 17.726 17.843 18.057 18.704 18.426 19.603 18.624 20.133 18.889 20.624 19.135 21.353 19.286 21.684 19.949 23.642 20.535 24.607 21.131 25.241 21.68 25.288 22.124 25.137 23.648 25.175 25.029 23.822 26.476 23.037 27.469 22.829 28.898 22.526 29.674 22.479 30.761 22.63 31.755 23.027 32.833 23.112 34.158 23.425 34.773 23.623 35.037 23.888 34.952 25.761 34.744 26.773 33.59 28.571 33.495 29.006 33.467 30.491 34.129 31.191 34.877 31.721 35.179 31.948 36.655 32.582 37.45 33.14 38.897 33.84 39.606 34.578 39.682 34.871 40.42 35.846 42.586 39.469 43.107 40.131 50.257 35.571 51.043 34.985 52.111 34.247 52.66 33.887 53.001 33.604 52.934 33.348 52.698 32.714 52.594 32.326 53.407 31.721 56.312 29.517 58.705 27.578 60.692 27.672 65.658 27.549 65.857 27.88 66.15 29.857 66.623 31.995 66.888 32.317 68.439 31.305 69.839 30.879 71.58 30.576 72.971 30.803 73.831 31.352 74.654 32.175 75.222 33.168 75.638 34.54 75.969 34.956 78.807 33.585 79.611 33.31 80.103 32.998 81.371 32.743 82.08 32.714 82.412 32.525 86.924 31.702 87.728 31.456 87.785 31.21 87.586 29.28 87.633 28.637 87.879 27.909 88.996 25.799 93.584 23.803 94.028 23.708 96.043 22.734"/>        
        <path className="d" d="M107.9344,112.186l.6244-.4162.5676-.5865.34-.9744.17-1.0785.1893-1.74.0378-3.0367-.0567-3.5569-.246-1.7879.0189-.8419.1892-2.1284.2933-1.3149.246-.596.53-3.7178-.0756-.7.3879-2.7339.35-.6621.4825-1.0974.7188-.842.0284-.1986.1514-.0756.8136-2.2327.2838-.5485.6055-1.0123.4635-.5392.6243-1.1824-.0189-.123.1324-.1607.18-1.0123.1419-.1325.2743-.7946.1892-.1513.01-.1987.369-.577,1.0121-.8988.4161-.5486v-.1325l.1419-.0945.18-.3974.2081-2.1947.2081-.227.1514-.6244.17-1.7026-.2649-1.8542-.3879-.5676-.227-.6054-.8324-.8041-.4824-.8325-.0757-.3784.1513-1.0879.0852-.4446.2648-.4067.5486-.4542.5771-.5676.2838-.17.3122-.53-.0284-.7-.1135-.35-.3406-.3974-.8048-.4631-1.1635-1.22-.1893-.3879.0189-.52.2649-.9271.3027-1.8351.4541-.9555.7189-2.6866.1419-.2081.2934-1.1825.4634-1.0973.7568-2.5636m-77.06-4.2861.0284.6717-.3783,1.4661-.1419,1.1636-.4257,1.8635-.2365.35-3.0839,3.1406-3.7935,4.0677-1.1258,1.06-.18.2649-.0946.5675L33.4472,57.66l-.0094.577-.1325.5014-.1228.123-.3879.52-.17.0662-1.4094.1419-.7285.2649-.3217.0188-.6243.2933-.7663.7946-.3216.5014-.6621,1.06-.5866.6054-.8324.473-.9082.36-.1325.104-.6716.3784-.4162.4068-.1042.2743-.1229.123L23.704,66.515l-.2932.6434-.36.7094.2175.2365.0568.2555.0284,1.419L23.25,71.3952l.2082,2.3839.5958,3.33.4919,1.5515.4068,3.85-.2838.577-.4256,1.5988-.7378,1.2676-.4541.8041-.1987.369-.1419.2649-.3594.7756-.4542.719-.227.4729-1.05,1.2865-.0945.1514-.0474.1514-.0567.1512-.2743.3879-.5581.719-.0663.1041-.0946.18-.246.53-.0567.1513.2271.0285.8609.1986.4066.1419v.53l.1988.1514.227.2649.4541.2459.454-.1987.5676.01.3974-1.192.34-.3783.7474-.1987.2269.0945,1.6176.019,2.8.4824,1.2771-.0756,1.3434.1041.4824-.0474.36-.0945.1891-.17.0758-.2271.0378-.2081-.0378-.2365-.0946-.0851-.0852-.123-.01-.2933.0568-.227.3122-.4541.2554-.596.4825-.8418,1.1067-1.1352,1.0217-.9933.7946-.946-.1608-.7852.0946-.6433.18-.2647.52-.3785,1.4-.1608.3879-.4257.4541-.2081,1.4852-.0852.52-.1986.3879-.3406.4446-.1135.8041.18.5581-.17.3217.01.5485.454.6811,1.0122.6244.227,1.0879-.0756.7474.4635.52-.0379.9744-.8041.8135.1325.6906-.577H50.75l.5677.4162.7662-.1229.4729-.52.2744-.5393.8608-.6622.2459-.0662.6243.2365.3785.36-.0379,1.1541.1419.2649.4825.1986.4446.0474.01.4541.1608.1891.246.3028.9555.1512,1.031-.454,1.296-1.0879.5487-.7662.2649-.1609L61.5055,82.16l.4448-.2081.189.0189.2649.2743.4446,2.0055.6054,1.05.104.7-.4824.5581-1.0974,1.1162-.435.123-1.23-.0094-.36.104-.123.1419-.0189.4541.681.596.8609.6528,2.5825,1.8067,1.7134,1.0883,2.7812,1.0406.3217.4257.0945,1.419-.2365,1.069-.0567.9081-.6149,1.7122-.0473.71.246.3595.0757.2175.4635.3785.8609.2647.6527.4163.9176.3027.4256.4635.1418.1325.1988.6812,1.2014,2.5541.6811.823.5109.8609.1228.1418.1514.823-.123.4635-.227.3217-.3216.2081-.9933.3595-.246.18-.0378.6433.4731.52,1.2675.8041.9744-.18.3784-.35.18-.5487-.2743-.6716.0662-.8419.5015-.7852,1.9392-1.8919,2.838-1.9677,1.7027-.6432,1.1257-.2554,1.0028-.7663.2647-.3973,3.0178-3.8029.4825-.4353.4351-.2175.8988.0378.87.2271.7569.5014.7662.6811.4919.473,4.0394,3.0366,1.92,1.3812.6336.2648.8988.0758.3026.123.719.5486.4541.2081.577.0568.5677.0378.8608-.0663.5771.2176.4636.0379.1891.0473.1892.01.1987.0283.1513.0379.1324.0756.104.0853.1515.208.0663.1041.1135.1514.0851.1229.0851.1136.104.1513.0663.1513.0472.123.0569.18.0378.1418.0378.1608.0284.1419.0284.17.0189.1893.0284.3311.0094.1986v.2554l.0189.2839v.3027l-.0094.2364.0094.1893.019.1324.0379.17.0283.142.0094.1135-.0189.1514-.0378.1607-.0284.1514.0379.1892.123.123.123.0568.18.0567.1986.0568.1608.0946.123.123.0851.1608.0189.2081.1609-.0189"/>
        <polyline className="d" points="107.94 112.19 107.77 112.2 107.77 112.33 107.74 112.62 107.74 112.75 107.76 112.99 107.79 113.23 107.8 113.36 107.82 113.52 107.95 113.71 108.06 113.77 108.23 113.82 108.34 113.82 108.34 113.96 108.26 114.14 108.19 114.29 108.16 114.48 108.12 114.66 108.05 114.87 108.02 115.04 108.02 115.3 108.02 115.42 108.05 115.57 108.11 115.73 108.2 115.86 108.34 116.02 108.42 116.16 108.46 116.3 108.47 116.49 108.5 116.64 108.57 116.8 108.64 116.94 108.67 117.29 108.68 117.41 108.7 117.53 108.73 117.7 108.78 117.82 108.85 117.95 109.01 118.1 109.12 118.28 109.12 118.52 109.1 118.67 109.07 118.9 109.07 119.05"/>
        <polyline className="d" points="1.275 118.83 1.133 118.68 1.086 118.59 1.057 118.5 1.048 118.44 1.038 118.41 1.057 118.24 1.095 118.13 1.199 117.97 1.237 117.77 1.237 117.58 1.265 117.5 1.322 117.37 1.341 117.32 1.455 117.23 1.596 117.12 1.653 116.97 1.644 116.85 1.644 116.61 1.596 116.42 1.54 116.28 1.492 116.13 1.464 116.02 1.455 115.88 1.445 115.51 1.455 115.32 1.445 115.15 1.426 114.99 1.398 114.75 1.36 114.48 1.332 114.32 1.322 114.12 1.313 113.93 1.303 113.77 1.284 113.55 1.265 113.42 1.246 113.25 1.199 113.07 1.133 112.91 1.095 112.74 1.038 112.53 0.972 112.31 0.925 112.19 0.83 111.96 0.773 111.84 0.66 111.64 0.546 111.44 0.357 111.06 0.253 110.76 0.244 110.67 0.272 110.47 0.329 110.33 0.376 110.16 0.357 110 0.3 109.89 0.073 109.5 0.026 109.35 7e-3 109.26 0.017 109.18 7e-3 109.14 0.036 108.96 0.026 108.8 0.017 108.6 7e-3 108.47 7e-3 108.33 0.026 108.19 0.045 108.02 0.073 107.88 0.111 107.76 0.196 107.52 0.31 107.36 0.433 107.22 0.603 107.05 0.755 106.93 0.896 106.73 0.972 106.58 1 106.42 1.029 106.22 1.095 106.06 1.123 105.9 1.19 105.67 1.228 105.53 1.275 105.39 1.332 105.26 1.436 105.05 1.492 104.93 1.549 104.78 1.615 104.59 1.663 104.37 1.682 104.22 1.719 103.82 1.757 103.68 1.833 103.61 1.89 103.53 2.06 103.41 2.202 103.28 2.278 103.18 2.4 102.96 2.467 102.86 2.523 102.71 2.542 102.58 2.561 102.44 2.552 102.25 2.552 102.1 2.571 101.92 2.609 101.3 2.637 100.75 2.656 100.63 2.694 100.41 2.751 100.3 2.864 100.14 3.015 99.992 3.195 99.794 3.252 99.68 3.309 99.51 3.347 99.33 3.432 99.122 3.479 98.904 3.498 98.819 3.507 98.772 3.517 98.734 3.526 98.668 3.574 98.554 3.649 98.403 3.753 98.252 3.848 98.081 3.886 97.93 3.952 97.779 4.028 97.656 4.113 97.542 4.179 97.448 4.283 97.239 4.359 97.05 4.387 96.937 4.548 96.842 5.361 96.454 5.655 96.161 6.345 95.31 6.705 94.524 7.007 93.995 7.329 93.257 7.802 92.207 8.029 91.649 8.294 91.147 8.455 90.939 8.663 90.712 8.767 90.504 8.862 89.965 8.994 89.473 9.164 89.123 9.467 88.754 9.883 88.271 10.441 87.174 10.706 86.843 10.933 86.19 11.823 85.897 12.74 85.433 13.194 84.809 13.544 84.185 13.648 83.712 13.734 83.513 13.856 83.447 13.998 83.447 14.14 83.522 15.644 84.535 15.824 84.487 15.89 84.336 15.976 84.043 16.051 83.428 16.032 82.756 15.976 82.51 15.834 82.331 15.72 82.037 15.748 81.829 15.815 81.602 15.957 81.441 16.08 81.176 16.117 80.703 16.193 80.287 16.42 80.079 16.609 79.795 16.581 79.426 16.307 78.849 16.505 76.853 16.657 76.607 16.865 76.418 17.149 76.286 17.272 76.21 17.328 76.059 17.376 75.15 17.489 75.009 17.631 74.952 17.782 74.99 18.18 74.961 19.192 74.64 19.816 74.214 19.996 73.949 20.507 73.353 20.677 73.173 20.942 72.152 21.358 71.452 21.519 71.111 21.68 70.572 22.238 69.664 22.588 68.595 22.834 68.292 23.052 67.866 22.37 67.999 21.434 69.001 20.904 69.38 20.724 69.437 20.365 69.664 20.015 69.862 19.722 70.052 19.003 70.619 18.028 71.518 17.697 71.877 17.243 72.435 16.893 72.776 15.796 72.842 14.415 73.173 12.986 73.126 12.56 73.334 12.069 73.646 10.65 75.122 10.091 75.623 9.552 76.153 9.108 76.645 8.89 76.891 8.426 77.44 8.086 77.922 7.414 78.357 7.301 78.452 7.206 78.641 7.045 78.982 6.866 79.303 6.714 79.521 6.563 79.682 6.412 79.786 6.241 79.88 6.09 79.947 5.957 80.07 5.863 80.202 5.749 80.372 5.579 80.561 5.418 80.722 5.257 80.798 4.955 80.893 4.69 80.94 4.311 80.94 3.924 80.921 3.697 80.921 3.583 80.921 3.309 81.006 3.157 81.148 3.129 81.375 3.053 81.526 2.911 81.564 2.779 81.545 2.656 81.489 2.438 81.375 2.174 81.214 1.965 81.129 1.852 81.101 1.644 81.082 1.407 81.082 1.275 81.101 0.982 81.148 0.66 81.233 0.404 81.366 0.206 81.526 0.083 81.668 0.036 81.772 0.017 81.914 -0.012 82.217 -0.059 82.349"/>
        <path className="e" d="M118.6159,69.1657c-1.1767,1.2545-.2542,2.7137-1.1186,4.2413a12.2049,12.2049,0,0,0-1.6372,3.6614c-.243.7634-.4273,1.179-1.0387,1.4372.2143,1.4811-.7326,3.6217-1.6162,4.8956-.18.26-.1658.7212-.494,1.2018a4.6139,4.6139,0,0,0-.6221-.4291,7.5375,7.5375,0,0,1-1.445,2.9014.23.23,0,0,1,.0111.1172c1.6551.6345-1.2527,4.5915.9028,5.5116-.5,1.6224-1.7944,2.3526-1.7151,4.3736a79.4106,79.4106,0,0,1,.2281,9.5651c-.1462,2.1634.4256,3.0815-.6259,5.4666-.6111,1.3858-1.4232.9541-1.4917,2.7031-.0468,1.1965.8593,2.2487.7472,3.6854-.0456.5849-.1111,1.1381-.1966,1.6641"/>
        <path className="e" d="M61.4306,34.8179c.435,1.5388,1.1729,2.56.6713,3.9927a5.9075,5.9075,0,0,1,1.1374,4.0728c-.2089,1.1154-.9533,1.45-1.2746,2.0772a14.5623,14.5623,0,0,1-1.238,2.8676c-1.5371,1.9354-5.84,2.8967-6.7776,4.8761-.8669,1.83.4052,4.9985-.0547,6.5717-.41,1.4031-.9945,1.8077-1.3736,3.1888-.0841.3063-1.3023-.7178-1.1.6805.1024.7077,1.6492.7734,1.8338,1.5861a12.5362,12.5362,0,0,1,.4711,1.4739c-1.5541-.0365-4.1165,2.7041-2.8327,4.1716-1.8342.0973-2.14,2.84-2.3584,4.2824a16.0476,16.0476,0,0,1-1.2629,4.2975c-.442,1.0507-.1424,2.5666-1.7115,3.2871.1289.0008.5436.1432.502.3455a3.3123,3.3123,0,0,1-1.3631-.305,9.6152,9.6152,0,0,1,1.419,6.1783c-.3557,2.5666-2.753,6.0992-2.1362,8.5747.3112,1.2484,2.1571,2.913,1.4524,4.9465"/>
        <path className="e" d="M70.5983,25.0508c-1.7093.6981-1.8149,2.5-2.9159,3.3339-1.3267,1.0053-4.2952,1.0294-5.2941,2.2262-.8979,1.0758-.8515,2.95-1.0177,4.1462"/>
        <path className="f" d="M90.5364,59.8367c.3728.2472.5909.8084,1.109.5608.2785-.1331.1686-.5273.3757-.6928.1971-.1574.3036-.0434.5169-.11.9522-.2977,1.2465.318,2.1628.4472a1.7264,1.7264,0,0,0,1.4094-.4414c.4609-.3571,1.0051-1.3977,1.6111-1.4351,1.1766-.0726.9009,1.0864,1.1694,1.7559a3.8812,3.8812,0,0,0,1.8987,1.8181c1.0057.236,1.82-.0031,2.665.7221a3.3115,3.3115,0,0,1,.74,1.2977c.0588.1344.1025.5082.2567.6011.2216.1336.2671-.1408.4362-.0861.8821.2854,1.1725,1.0123,1.3746,1.9154.101.451.2386.9155.3006,1.36.0445.3192-.0877.74-.0275,1.0355.0721.3544.445.4993.702.7021a5.025,5.025,0,0,0,1.23.7018,1.61,1.61,0,0,1,1.1438,1.8274,15.9079,15.9079,0,0,0-.3721,2.3314,4.6876,4.6876,0,0,0,.3373,1.3123c.1918.4994.2017.3562.1539.8578-.06.63.4087,1.7793-.0294,2.4414-.5459.8252-2.0453-.4488-2.39.3373-.2325.53.256.6191-.3611,1.2316-.3159.3136-1.0388.53-1.2482.8981-.3361.5909.336.5935.2676,1.1565-.04.3261-.5034.5689-.5792.9769-.03.16-.0316,2.8751-1.07,1.9539-.092-.0816.331-.7053-.286-.96-.4587-.19-.7043.3518-.6745-.2822.0213-.4522.6692-.75.7369-1.1584.0393-.2373-.2627-.1964-.29-.3776-.0458-.3091.0508-.5614-.0587-.8284-.131-.3193-.1193-.55-.5938-.3593.4826-1.2777-1.2172-.7508-1.73-1.052-.3065-.18-.2927-.5241-.3959-.9421-.0168-.0687.2233-.0744.1943-.2236-.0257-.1324-.401-.19-.4068-.1577.08-.4331.2655-.1326.6085-.33.6294-.3617.3315-.99-.2585-.6744-.2489.1333-.717,1.1549-1.2224,1.0117-.2725-.0773-.0753-.324-.154-.55-.0236-.0678-.2975.0155-.3006-.1026a3.4983,3.4983,0,0,1,.11-.374c-.0733-.2208.3726-.2062.0513-.3445-.1375-.0592-.3541.2954-.4986.2639-.2772-.0605-.3023-.1809-.41-.4545a3.42,3.42,0,0,1-.165-.801c.0034.0352-.1337-.0989-.15-.2108s.0963-.2477.0661-.3592c-.2709-1-.1737-.2386-.418.1539-.5983-1.015-1.7128.1327-2.6173.1173-.5062-.0085-1.0163-.2571-1.5029-.2566-.5388.0005-.8508.4046-1.3271.4106-.1635.0021-.2468-.3454-.4252-.3739-.1368-.0219-.1866.2381-.3372.2493a1.9605,1.9605,0,0,0-.7845.066c-.7932.3959-.0113.8006-.2713,1.43-.2619.6339-.5511.17-.9529.0073-.0338-.0137-.7853-.1709-.7772-.176-.2925.1831.0417.4624-.0586.6526-.3608.6831-.7161-.0657-1.32-.0954-.3857-.0189-.6447.3091-1.0337.308-.4315-.0012-.8309-.4576-1.2757-.3666.22.2293.5753.2267.62.52.0128.0858-.2754.0708-.2823.1248a5.0165,5.0165,0,0,1-.0814.8257c-.31.7413-1.01.07-1.1979.5085-.1122.2609.2156.5527.077.8358-.2581.5269-.4951.1663-.88.3445-1.0907.5054.1565.7928.2713,1.4077.1934,1.0365-.8482.49-1.3711.9458-.188.1639-.5209.8019-.4142,1.063.0411.1.4467.1874.5682.3226a1.5,1.5,0,0,1,.066,1.4c-.2526.5165-1.0059.5065-1.3122,1.0411-.1589.2774-.0681.6547-.264.9164-.2013.2688-.65.3972-.9017.6231a17.0634,17.0634,0,0,0-1.2988,1.4409c-.3956.4528-.9027,1.1608-1.2831.2017-.1858-.4687.1243-.94.0147-1.4369-.0377-.1713-.2294-.3238-.2749-.5242-.0407-.1793.1055-.418.04-.6489-.1915-.6784-.5478-.5073.1173-1.0924a7.0214,7.0214,0,0,0,1.0117-.997c.164-.2135.3063-.6718.4692-.8212.0985-.09.3958-.067.5462-.18.2971-.2223.253-.3819.4069-.6489.0553-.096-.2749-.167-.0733-.3372.0912-.0771.4189.1166.55.0586a1.1372,1.1372,0,0,0,.5627-.7643c.0365-.1157-.1546-.22-.13-.3208.0518-.2134.239-.3635.3153-.5645.072-.19.025-.4862.1722-.6415.2681-.2827.7973-.103.9018-.6451.2058-1.0673-.9254-.6535-1.3307-.5536.1573-.5706.9255-1.8869.6709-2.313-.148-.2477-.5349-.2583-.6855-.5022a6.782,6.782,0,0,1-.22-.9164c-.0645-.4335.1755-.4212-.1026-.8138a4.7737,4.7737,0,0,0-.8266-.7039,10.4,10.4,0,0,0-1.7908-.8595,11.9543,11.9543,0,0,1-2.0814-1.5451,6.4821,6.4821,0,0,1-1.4149-1.3857c-.3457-.6071-.1636-1.7048-1.07-1.0374-.6531.4807-.3393.6271-.9824.3684-.1116-.0449-.0355-.2819-.2382-.3281-.1631-.037-.304.1129-.4509.13-.1811.0213-.2106.2857-.4233.2566a4.3986,4.3986,0,0,1-.5-.46c-.4734-.4417-.7791-.6766-.7937-1.3489a1.8516,1.8516,0,0,1,.2951-1.1437c.1449-.1733.481-.1992.5976-.37.1116-.1639.024-.3732.1027-.5426.4721-1.0169,1.1306-.7583,2.0306-.9237a3.5068,3.5068,0,0,0,1.4993-.7809c.2354-.306.1211-.6385.3153-.99.1406-.2544.6029-.7144.9-.559.4234.2216.0212,1.0772.64.9439.2363-.0509.4827-.6985.8541-.77.46-.0883.5363.2608.9091.35a2.9336,2.9336,0,0,0,2.0785-.537c.2427-.3629-.1221-.8808.0989-1.2354a1.2343,1.2343,0,0,1,.9971-.3885,4.0788,4.0788,0,0,1,.8614.3555c.8052.4387.3331.3884.99-.0733.3582-.2519.7053-.1738,1.0832-.3409.4767-.2107.6847-.7352,1.16-.9714.8015-.3982,1.5946.1394,2.2764-.5388.2689-.2675.1811-.5018.6561-.5682.3578-.05.68.1514,1.0851.0587.3529-.0808.6416-.3311,1.0117-.2566"/>
      </svg>