<svg xmlns="http://www.w3.org/2000/svg" width="35" height="35" viewBox="0 0 315 329" fill="#0f1729">
  <path d="M112.739 80.9402H92.8638L88.5804 56.2215H72.2179V4.70192C72.2179 2.08228 69.5622 0 66.2212 0C62.8801 0 60.2244 2.08228 60.2244 4.70192V56.2215H43.8619L39.5785 80.9402H19.7036V120.571H49.1733C52.5143 120.571 55.17 122.653 55.17 125.273C55.17 127.892 52.5143 129.974 49.1733 129.974H19.7036V149.655H49.1733C52.5143 149.655 55.17 151.738 55.17 154.357C55.17 156.977 52.5143 159.059 49.1733 159.059H19.7036V178.74H49.1733C52.5143 178.74 55.17 180.822 55.17 183.442C55.17 186.062 52.5143 188.144 49.1733 188.144H19.7036V209.101H112.739V80.9402ZM73.1602 186.666C72.0466 187.539 70.5045 188.01 68.8769 188.01C67.3348 188.01 65.7928 187.539 64.6791 186.666C63.5655 185.793 62.8801 184.584 62.8801 183.308C62.8801 182.099 63.4798 180.89 64.6791 180.016C65.7928 179.143 67.3348 178.606 68.8769 178.606C70.4189 178.606 71.9609 179.143 73.1602 180.016C74.2739 180.89 74.8736 182.099 74.8736 183.308C74.8736 184.584 74.2739 185.793 73.1602 186.666ZM73.1602 157.649C72.0466 158.522 70.5045 158.992 68.8769 158.992C67.3348 158.992 65.7928 158.522 64.6791 157.649C63.5655 156.775 62.8801 155.566 62.8801 154.29C62.8801 154.021 62.8801 153.686 62.9658 153.35C63.0515 153.014 63.1371 152.745 63.3085 152.477C63.4798 152.208 63.6511 151.939 63.8225 151.67C64.0795 151.402 64.2508 151.2 64.5935 150.932C64.8505 150.73 65.1931 150.529 65.5358 150.327C65.8785 150.126 66.2212 149.991 66.5638 149.924C66.9065 149.79 67.3348 149.723 67.6775 149.655C68.4485 149.521 69.2195 149.521 69.9905 149.655C70.3332 149.723 70.7615 149.79 71.1042 149.924C71.4469 150.058 71.7896 150.193 72.1322 150.327C72.4749 150.529 72.7319 150.663 73.0746 150.932C73.3316 151.133 73.5886 151.402 73.8456 151.67C74.1026 151.939 74.2739 152.208 74.3596 152.477C74.5309 152.745 74.6166 153.081 74.7023 153.35C74.7879 153.686 74.7879 153.954 74.7879 154.29C74.8736 155.566 74.2739 156.775 73.1602 157.649ZM73.1602 128.564C72.0466 129.437 70.5045 129.907 68.8769 129.907C68.4485 129.907 68.1058 129.907 67.6775 129.84C67.2492 129.773 66.9065 129.706 66.5638 129.571C66.2212 129.437 65.8785 129.303 65.5358 129.101C65.1931 128.9 64.9361 128.765 64.5935 128.497C64.3365 128.295 64.0795 128.027 63.8225 127.758C63.5655 127.489 63.3941 127.22 63.3085 126.952C63.1371 126.683 63.0515 126.347 62.9658 126.079C62.8801 125.743 62.8801 125.474 62.8801 125.138C62.8801 123.929 63.4798 122.72 64.6791 121.847C64.9361 121.645 65.2788 121.444 65.6215 121.242C65.9642 121.041 66.3068 120.906 66.6495 120.839C66.9922 120.705 67.4205 120.638 67.7632 120.571C69.7335 120.235 71.7896 120.772 73.1602 121.847C74.2739 122.72 74.8736 123.929 74.8736 125.138C74.8736 126.482 74.2739 127.691 73.1602 128.564Z" fill="#0f1729"/>
  <path d="M30.669 261.494H52.0859H80.3562H101.773V239.932H129.272V218.438H3.16968V239.932H30.669V261.494Z" fill="#16ADE1"/>
  <path d="M126.531 319.596H80.3563V270.897H52.0859V319.596H5.99674C2.6557 319.596 0 321.678 0 324.298C0 326.917 2.6557 329 5.99674 329H126.531C129.872 329 132.528 326.917 132.528 324.298C132.528 321.745 129.787 319.596 126.531 319.596Z" fill="#0f1729"/>
  <path d="M285.102 226.565H314.572C314.657 226.565 314.829 226.565 314.914 226.565V210.848H216.825V290.444H314.914V235.902C314.829 235.902 314.657 235.902 314.572 235.902H285.102C281.761 235.902 279.105 233.82 279.105 231.2C279.105 228.581 281.847 226.565 285.102 226.565ZM271.31 232.208C271.224 232.544 271.138 232.812 270.967 233.081C270.796 233.35 270.624 233.618 270.453 233.887C270.196 234.156 270.025 234.357 269.682 234.626C269.425 234.827 269.082 235.029 268.74 235.23C268.397 235.432 268.054 235.566 267.712 235.633C267.369 235.768 266.941 235.835 266.598 235.902C266.255 235.969 265.827 235.969 265.399 235.969C265.056 235.969 264.628 235.902 264.199 235.902C263.857 235.835 263.428 235.768 263.085 235.633C262.743 235.499 262.4 235.365 262.057 235.23C261.715 235.029 261.458 234.895 261.115 234.626C260.858 234.424 260.601 234.156 260.344 233.887C260.087 233.618 259.916 233.35 259.83 233.081C259.659 232.812 259.573 232.476 259.487 232.208C259.402 231.939 259.402 231.603 259.402 231.267C259.402 230.932 259.487 230.663 259.487 230.327C259.487 229.991 259.659 229.723 259.83 229.454C260.001 229.185 260.173 228.916 260.344 228.648C260.601 228.379 260.772 228.178 261.115 227.909C262.486 226.834 264.542 226.297 266.512 226.633C266.941 226.7 267.283 226.767 267.626 226.901C267.969 227.036 268.311 227.17 268.654 227.304C268.997 227.506 269.254 227.64 269.596 227.909C270.71 228.782 271.31 229.991 271.31 231.267C271.395 231.603 271.395 231.872 271.31 232.208Z" fill="#16ADE1"/>
  <path d="M204.831 201.511H313.629C308.403 183.912 288.357 170.747 264.285 170.747H261.629V153.887H215.797V170.747H213.141C185.128 170.747 162.511 188.547 162.511 210.445V311.066C162.511 318.32 170.05 324.231 179.302 324.231H298.209C307.461 324.231 315 318.32 315 311.066V299.848H204.831V201.511Z" fill="#0f1729"/>
  <path d="M246.551 113.854H230.789V144.55H246.551V113.854Z" fill="#0f1729"/>
  <path d="M199.949 144.55H218.881V113.854H199.949C195.922 113.854 192.753 116.406 192.753 119.496V138.841C192.667 141.998 195.922 144.55 199.949 144.55Z" fill="#16ADE1"/>
  <path d="M284.674 138.841V119.496C284.674 116.339 281.418 113.854 277.477 113.854H258.545V144.55H277.477C281.418 144.55 284.674 141.998 284.674 138.841Z" fill="#16ADE1"/>
</svg>
